<svg xmlns="http://www.w3.org/2000/svg" version="1.1" xmlns:xlink="http://www.w3.org/1999/xlink" xmlns:svgjs="http://svgjs.dev/svgjs" width="1440" height="560" preserveAspectRatio="none" viewBox="0 0 1440 560"><g mask="url(&quot;#SvgjsMask1000&quot;)" fill="none"><rect width="1440" height="560" x="0" y="0" fill="#0e2a47"></rect><path d="M0,448.536C97.644,453.214,206.568,502.172,287.326,447.087C368.18,391.936,346.753,265.658,393.872,179.875C446.523,84.02,588.492,25.725,578.594,-83.189C568.823,-190.708,432.755,-233.952,349.967,-303.248C280.972,-360.998,216.039,-419.131,133.756,-455.529C41.372,-496.395,-55.129,-544.195,-154.573,-526.428C-257.908,-507.966,-345.046,-437.873,-412.982,-357.851C-480.485,-278.339,-525.78,-180.868,-536.061,-77.074C-546.089,24.168,-517.631,124.768,-469.672,214.492C-423.691,300.515,-357.463,376.875,-270.161,420.379C-187.449,461.596,-92.307,444.114,0,448.536" fill="#0b2239"></path><path d="M1440 1093.411C1552.438 1091.708 1672.007 1128.6689999999999 1769.911 1073.351 1869.269 1017.211 1913.4180000000001 901.652 1962.075 798.424 2011.275 694.045 2055.904 587.165 2053.458 471.798 2050.809 346.871 2019.288 222.49200000000002 1947.691 120.08300000000003 1871.555 11.18100000000004 1770.425-96.33799999999997 1639.681-120.05100000000004 1511.356-143.32500000000005 1400.007-39.11699999999996 1275.005-1.919999999999959 1150.607 35.097999999999956 998.663 6.2859999999999445 906.848 98.02100000000002 814.299 190.48899999999998 801.588 337.769 804.102 468.572 806.381 587.186 868.335 690.689 920.287 797.345 970.9110000000001 901.2760000000001 1003.154 1026.221 1103.603 1083.444 1203.092 1140.12 1325.513 1095.145 1440 1093.411" fill="#113255"></path></g><defs><mask id="SvgjsMask1000"><rect width="1440" height="560" fill="#ffffff"></rect></mask></defs></svg>